<svg width="14" height="14" viewBox="0 0 14 14" fill="none" xmlns="http://www.w3.org/2000/svg">
<path d="M4.37036 8.5H4.96286L5.17286 8.2975C4.43786 7.4425 3.99536 6.3325 3.99536 5.125C3.99536 2.4325 6.17786 0.25 8.87036 0.25C11.5629 0.25 13.7454 2.4325 13.7454 5.125C13.7454 7.8175 11.5629 10 8.87036 10C7.66286 10 6.55286 9.5575 5.69786 8.8225L5.49536 9.0325V9.625L1.74536 13.3675L0.627861 12.25L4.37036 8.5ZM8.87036 8.5C10.7379 8.5 12.2454 6.9925 12.2454 5.125C12.2454 3.2575 10.7379 1.75 8.87036 1.75C7.00286 1.75 5.49536 3.2575 5.49536 5.125C5.49536 6.9925 7.00286 8.5 8.87036 8.5Z" fill="white"/>
</svg>
