<svg width="1440" height="42" viewBox="0 0 1440 42" fill="none" xmlns="http://www.w3.org/2000/svg">
<path opacity="0.65" d="M-1 0H352.933L374 20.5L352.933 42H-1V0Z" fill="#7E7E81"/>
<path opacity="0.65" d="M355 0H708.933L730 20.5L708.933 42H355L375.833 20.5L355 0Z" fill="#7E7E81"/>
<path opacity="0.65" d="M711 0H1064.93L1086 20.5L1064.93 42H711L731.833 20.5L711 0Z" fill="#7E7E81"/>
<path d="M1067 0H1442V20.5V42H1067L1089.07 20.5L1067 0Z" fill="#054C73"/>
<path opacity="0.8" d="M112.036 15.3636V27H110.275V17.125H110.206L107.422 18.9432V17.2614L110.326 15.3636H112.036ZM117.805 27.108C117.494 27.108 117.227 26.9981 117.003 26.7784C116.78 26.5549 116.668 26.286 116.668 25.9716C116.668 25.661 116.78 25.3958 117.003 25.1761C117.227 24.9527 117.494 24.8409 117.805 24.8409C118.115 24.8409 118.382 24.9527 118.606 25.1761C118.829 25.3958 118.941 25.661 118.941 25.9716C118.941 26.1799 118.888 26.3712 118.782 26.5455C118.68 26.7159 118.543 26.8523 118.373 26.9545C118.202 27.0568 118.013 27.108 117.805 27.108ZM136.777 21.1818C136.777 22.4242 136.55 23.4924 136.095 24.3864C135.641 25.2765 135.018 25.9621 134.226 26.4432C133.438 26.9205 132.542 27.1591 131.538 27.1591C130.531 27.1591 129.631 26.9205 128.839 26.4432C128.052 25.9621 127.43 25.2746 126.976 24.3807C126.521 23.4867 126.294 22.4205 126.294 21.1818C126.294 19.9394 126.521 18.8731 126.976 17.983C127.43 17.089 128.052 16.4034 128.839 15.9261C129.631 15.4451 130.531 15.2045 131.538 15.2045C132.542 15.2045 133.438 15.4451 134.226 15.9261C135.018 16.4034 135.641 17.089 136.095 17.983C136.55 18.8731 136.777 19.9394 136.777 21.1818ZM135.038 21.1818C135.038 20.2348 134.885 19.4375 134.578 18.7898C134.275 18.1383 133.858 17.6458 133.328 17.3125C132.802 16.9754 132.205 16.8068 131.538 16.8068C130.868 16.8068 130.269 16.9754 129.743 17.3125C129.216 17.6458 128.8 18.1383 128.493 18.7898C128.19 19.4375 128.038 20.2348 128.038 21.1818C128.038 22.1288 128.19 22.928 128.493 23.5795C128.8 24.2273 129.216 24.7197 129.743 25.0568C130.269 25.3902 130.868 25.5568 131.538 25.5568C132.205 25.5568 132.802 25.3902 133.328 25.0568C133.858 24.7197 134.275 24.2273 134.578 23.5795C134.885 22.928 135.038 22.1288 135.038 21.1818ZM138.83 27V18.2727H140.472V19.6591H140.562C140.722 19.1894 141.002 18.8201 141.403 18.5511C141.809 18.2784 142.267 18.142 142.778 18.142C142.884 18.142 143.009 18.1458 143.153 18.1534C143.301 18.161 143.417 18.1705 143.5 18.1818V19.8068C143.432 19.7879 143.311 19.767 143.136 19.7443C142.962 19.7178 142.788 19.7045 142.614 19.7045C142.212 19.7045 141.854 19.7898 141.54 19.9602C141.229 20.1269 140.983 20.3598 140.801 20.6591C140.619 20.9545 140.528 21.2917 140.528 21.6705V27H138.83ZM147.925 27.1705C147.22 27.1705 146.591 26.9905 146.038 26.6307C145.489 26.267 145.057 25.75 144.743 25.0795C144.432 24.4053 144.277 23.5966 144.277 22.6534C144.277 21.7102 144.434 20.9034 144.749 20.233C145.067 19.5625 145.502 19.0492 146.055 18.6932C146.608 18.3371 147.235 18.1591 147.936 18.1591C148.478 18.1591 148.913 18.25 149.243 18.4318C149.576 18.6098 149.834 18.8182 150.016 19.0568C150.201 19.2955 150.345 19.5057 150.447 19.6875H150.55V15.3636H152.249V27H150.589V25.642H150.447C150.345 25.8277 150.197 26.0398 150.004 26.2784C149.815 26.517 149.554 26.7254 149.22 26.9034C148.887 27.0814 148.455 27.1705 147.925 27.1705ZM148.3 25.7216C148.788 25.7216 149.201 25.5928 149.538 25.3352C149.879 25.0739 150.137 24.7121 150.311 24.25C150.489 23.7879 150.578 23.25 150.578 22.6364C150.578 22.0303 150.491 21.5 150.317 21.0455C150.143 20.5909 149.887 20.2367 149.55 19.983C149.213 19.7292 148.796 19.6023 148.3 19.6023C147.788 19.6023 147.362 19.7348 147.021 20C146.68 20.2652 146.423 20.6269 146.249 21.0852C146.078 21.5436 145.993 22.0606 145.993 22.6364C145.993 23.2197 146.08 23.7443 146.254 24.2102C146.429 24.6761 146.686 25.0455 147.027 25.3182C147.372 25.5871 147.796 25.7216 148.3 25.7216ZM158.435 27.1761C157.575 27.1761 156.834 26.9924 156.213 26.625C155.596 26.2538 155.118 25.733 154.781 25.0625C154.448 24.3883 154.281 23.5985 154.281 22.6932C154.281 21.7992 154.448 21.0114 154.781 20.3295C155.118 19.6477 155.588 19.1155 156.19 18.733C156.796 18.3504 157.505 18.1591 158.315 18.1591C158.808 18.1591 159.285 18.2405 159.747 18.4034C160.209 18.5663 160.624 18.822 160.991 19.1705C161.359 19.5189 161.649 19.9716 161.861 20.5284C162.073 21.0814 162.179 21.7538 162.179 22.5455V23.1477H155.241V21.875H160.514C160.514 21.428 160.423 21.0322 160.241 20.6875C160.06 20.339 159.804 20.0644 159.474 19.8636C159.149 19.6629 158.766 19.5625 158.327 19.5625C157.849 19.5625 157.433 19.6799 157.077 19.9148C156.724 20.1458 156.452 20.4489 156.259 20.8239C156.069 21.1951 155.974 21.5985 155.974 22.0341V23.0284C155.974 23.6117 156.077 24.108 156.281 24.517C156.49 24.9261 156.779 25.2386 157.151 25.4545C157.522 25.6667 157.955 25.7727 158.452 25.7727C158.774 25.7727 159.067 25.7273 159.332 25.6364C159.598 25.5417 159.827 25.4015 160.02 25.2159C160.213 25.0303 160.361 24.8011 160.463 24.5284L162.071 24.8182C161.942 25.2917 161.711 25.7064 161.378 26.0625C161.048 26.4148 160.634 26.6894 160.134 26.8864C159.637 27.0795 159.071 27.1761 158.435 27.1761ZM164.064 27V18.2727H165.706V19.6591H165.797C165.956 19.1894 166.236 18.8201 166.638 18.5511C167.043 18.2784 167.501 18.142 168.013 18.142C168.119 18.142 168.244 18.1458 168.388 18.1534C168.536 18.161 168.651 18.1705 168.734 18.1818V19.8068C168.666 19.7879 168.545 19.767 168.371 19.7443C168.196 19.7178 168.022 19.7045 167.848 19.7045C167.446 19.7045 167.089 19.7898 166.774 19.9602C166.464 20.1269 166.217 20.3598 166.036 20.6591C165.854 20.9545 165.763 21.2917 165.763 21.6705V27H164.064ZM176.854 27L173.626 15.3636H175.473L177.74 24.375H177.848L180.206 15.3636H182.036L184.393 24.3807H184.501L186.763 15.3636H188.615L185.382 27H183.615L181.166 18.2841H181.075L178.626 27H176.854ZM191.76 27.1932C191.207 27.1932 190.707 27.0909 190.26 26.8864C189.813 26.678 189.459 26.3769 189.197 25.983C188.94 25.589 188.811 25.1061 188.811 24.5341C188.811 24.0417 188.906 23.6364 189.095 23.3182C189.285 23 189.54 22.7481 189.862 22.5625C190.184 22.3769 190.544 22.2367 190.942 22.142C191.339 22.0473 191.745 21.9754 192.158 21.9261C192.68 21.8655 193.105 21.8163 193.43 21.7784C193.756 21.7367 193.993 21.6705 194.141 21.5795C194.288 21.4886 194.362 21.3409 194.362 21.1364V21.0966C194.362 20.6004 194.222 20.2159 193.942 19.9432C193.665 19.6705 193.252 19.5341 192.703 19.5341C192.131 19.5341 191.68 19.661 191.351 19.9148C191.025 20.1648 190.8 20.4432 190.675 20.75L189.078 20.3864C189.268 19.8561 189.544 19.428 189.908 19.1023C190.275 18.7727 190.697 18.5341 191.175 18.3864C191.652 18.2348 192.154 18.1591 192.68 18.1591C193.029 18.1591 193.398 18.2008 193.788 18.2841C194.182 18.3636 194.55 18.5114 194.891 18.7273C195.235 18.9432 195.518 19.2519 195.737 19.6534C195.957 20.0511 196.067 20.5682 196.067 21.2045V27H194.408V25.8068H194.339C194.23 26.0265 194.065 26.2424 193.845 26.4545C193.625 26.6667 193.343 26.8428 192.999 26.983C192.654 27.1231 192.241 27.1932 191.76 27.1932ZM192.129 25.8295C192.599 25.8295 193 25.7367 193.334 25.5511C193.671 25.3655 193.927 25.1231 194.101 24.8239C194.279 24.5208 194.368 24.197 194.368 23.8523V22.7273C194.307 22.7879 194.19 22.8447 194.016 22.8977C193.845 22.947 193.65 22.9905 193.43 23.0284C193.211 23.0625 192.997 23.0947 192.788 23.125C192.58 23.1515 192.406 23.1742 192.266 23.1932C191.936 23.2348 191.635 23.3049 191.362 23.4034C191.093 23.5019 190.877 23.6439 190.714 23.8295C190.555 24.0114 190.476 24.2538 190.476 24.5568C190.476 24.9773 190.631 25.2955 190.942 25.5114C191.252 25.7235 191.648 25.8295 192.129 25.8295ZM202.403 18.2727V19.6364H197.636V18.2727H202.403ZM198.915 16.1818H200.614V24.4375C200.614 24.767 200.663 25.0152 200.761 25.1818C200.86 25.3447 200.987 25.4564 201.142 25.517C201.301 25.5739 201.473 25.6023 201.659 25.6023C201.795 25.6023 201.915 25.5928 202.017 25.5739C202.119 25.5549 202.199 25.5398 202.256 25.5284L202.562 26.9318C202.464 26.9697 202.324 27.0076 202.142 27.0455C201.96 27.0871 201.733 27.1098 201.46 27.1136C201.013 27.1212 200.597 27.0417 200.21 26.875C199.824 26.7083 199.511 26.4508 199.273 26.1023C199.034 25.7538 198.915 25.3163 198.915 24.7898V16.1818ZM207.95 27.1761C207.09 27.1761 206.35 26.9924 205.729 26.625C205.111 26.2538 204.634 25.733 204.297 25.0625C203.964 24.3883 203.797 23.5985 203.797 22.6932C203.797 21.7992 203.964 21.0114 204.297 20.3295C204.634 19.6477 205.104 19.1155 205.706 18.733C206.312 18.3504 207.02 18.1591 207.831 18.1591C208.323 18.1591 208.801 18.2405 209.263 18.4034C209.725 18.5663 210.14 18.822 210.507 19.1705C210.875 19.5189 211.164 19.9716 211.376 20.5284C211.589 21.0814 211.695 21.7538 211.695 22.5455V23.1477H204.757V21.875H210.03C210.03 21.428 209.939 21.0322 209.757 20.6875C209.575 20.339 209.32 20.0644 208.99 19.8636C208.664 19.6629 208.282 19.5625 207.842 19.5625C207.365 19.5625 206.948 19.6799 206.592 19.9148C206.24 20.1458 205.967 20.4489 205.774 20.8239C205.585 21.1951 205.49 21.5985 205.49 22.0341V23.0284C205.49 23.6117 205.592 24.108 205.797 24.517C206.005 24.9261 206.295 25.2386 206.666 25.4545C207.037 25.6667 207.471 25.7727 207.967 25.7727C208.289 25.7727 208.583 25.7273 208.848 25.6364C209.113 25.5417 209.342 25.4015 209.536 25.2159C209.729 25.0303 209.876 24.8011 209.979 24.5284L211.587 24.8182C211.458 25.2917 211.227 25.7064 210.893 26.0625C210.564 26.4148 210.149 26.6894 209.649 26.8864C209.153 27.0795 208.587 27.1761 207.95 27.1761ZM213.58 27V18.2727H215.222V19.6591H215.312C215.472 19.1894 215.752 18.8201 216.153 18.5511C216.559 18.2784 217.017 18.142 217.528 18.142C217.634 18.142 217.759 18.1458 217.903 18.1534C218.051 18.161 218.167 18.1705 218.25 18.1818V19.8068C218.182 19.7879 218.061 19.767 217.886 19.7443C217.712 19.7178 217.538 19.7045 217.364 19.7045C216.962 19.7045 216.604 19.7898 216.29 19.9602C215.979 20.1269 215.733 20.3598 215.551 20.6591C215.369 20.9545 215.278 21.2917 215.278 21.6705V27H213.58ZM224.347 21.3466V22.8182H219.188V21.3466H224.347ZM226.747 15.3636H228.878L232.582 24.4091H232.719L236.423 15.3636H238.554V27H236.884V18.5795H236.776L233.344 26.983H231.957L228.526 18.5739H228.418V27H226.747V15.3636ZM244.732 27.1761C243.872 27.1761 243.131 26.9924 242.51 26.625C241.893 26.2538 241.415 25.733 241.078 25.0625C240.745 24.3883 240.578 23.5985 240.578 22.6932C240.578 21.7992 240.745 21.0114 241.078 20.3295C241.415 19.6477 241.885 19.1155 242.487 18.733C243.093 18.3504 243.802 18.1591 244.612 18.1591C245.105 18.1591 245.582 18.2405 246.044 18.4034C246.506 18.5663 246.921 18.822 247.288 19.1705C247.656 19.5189 247.946 19.9716 248.158 20.5284C248.37 21.0814 248.476 21.7538 248.476 22.5455V23.1477H241.538V21.875H246.811C246.811 21.428 246.72 21.0322 246.538 20.6875C246.357 20.339 246.101 20.0644 245.771 19.8636C245.446 19.6629 245.063 19.5625 244.624 19.5625C244.146 19.5625 243.73 19.6799 243.374 19.9148C243.021 20.1458 242.749 20.4489 242.555 20.8239C242.366 21.1951 242.271 21.5985 242.271 22.0341V23.0284C242.271 23.6117 242.374 24.108 242.578 24.517C242.786 24.9261 243.076 25.2386 243.447 25.4545C243.819 25.6667 244.252 25.7727 244.749 25.7727C245.071 25.7727 245.364 25.7273 245.629 25.6364C245.894 25.5417 246.124 25.4015 246.317 25.2159C246.51 25.0303 246.658 24.8011 246.76 24.5284L248.368 24.8182C248.239 25.2917 248.008 25.7064 247.675 26.0625C247.345 26.4148 246.93 26.6894 246.43 26.8864C245.934 27.0795 245.368 27.1761 244.732 27.1761ZM254.435 18.2727V19.6364H249.668V18.2727H254.435ZM250.946 16.1818H252.645V24.4375C252.645 24.767 252.694 25.0152 252.793 25.1818C252.891 25.3447 253.018 25.4564 253.173 25.517C253.332 25.5739 253.505 25.6023 253.69 25.6023C253.827 25.6023 253.946 25.5928 254.048 25.5739C254.151 25.5549 254.23 25.5398 254.287 25.5284L254.594 26.9318C254.495 26.9697 254.355 27.0076 254.173 27.0455C253.991 27.0871 253.764 27.1098 253.491 27.1136C253.045 27.1212 252.628 27.0417 252.241 26.875C251.855 26.7083 251.543 26.4508 251.304 26.1023C251.065 25.7538 250.946 25.3163 250.946 24.7898V16.1818ZM259.982 27.1761C259.122 27.1761 258.381 26.9924 257.76 26.625C257.143 26.2538 256.665 25.733 256.328 25.0625C255.995 24.3883 255.828 23.5985 255.828 22.6932C255.828 21.7992 255.995 21.0114 256.328 20.3295C256.665 19.6477 257.135 19.1155 257.737 18.733C258.343 18.3504 259.052 18.1591 259.862 18.1591C260.355 18.1591 260.832 18.2405 261.294 18.4034C261.756 18.5663 262.171 18.822 262.538 19.1705C262.906 19.5189 263.196 19.9716 263.408 20.5284C263.62 21.0814 263.726 21.7538 263.726 22.5455V23.1477H256.788V21.875H262.061C262.061 21.428 261.97 21.0322 261.788 20.6875C261.607 20.339 261.351 20.0644 261.021 19.8636C260.696 19.6629 260.313 19.5625 259.874 19.5625C259.396 19.5625 258.98 19.6799 258.624 19.9148C258.271 20.1458 257.999 20.4489 257.805 20.8239C257.616 21.1951 257.521 21.5985 257.521 22.0341V23.0284C257.521 23.6117 257.624 24.108 257.828 24.517C258.036 24.9261 258.326 25.2386 258.697 25.4545C259.069 25.6667 259.502 25.7727 259.999 25.7727C260.321 25.7727 260.614 25.7273 260.879 25.6364C261.144 25.5417 261.374 25.4015 261.567 25.2159C261.76 25.0303 261.908 24.8011 262.01 24.5284L263.618 24.8182C263.489 25.2917 263.258 25.7064 262.925 26.0625C262.595 26.4148 262.18 26.6894 261.68 26.8864C261.184 27.0795 260.618 27.1761 259.982 27.1761ZM265.611 27V18.2727H267.253V19.6591H267.344C267.503 19.1894 267.783 18.8201 268.185 18.5511C268.59 18.2784 269.048 18.142 269.56 18.142C269.666 18.142 269.791 18.1458 269.935 18.1534C270.082 18.161 270.198 18.1705 270.281 18.1818V19.8068C270.213 19.7879 270.092 19.767 269.918 19.7443C269.743 19.7178 269.569 19.7045 269.395 19.7045C268.993 19.7045 268.635 19.7898 268.321 19.9602C268.01 20.1269 267.764 20.3598 267.582 20.6591C267.401 20.9545 267.31 21.2917 267.31 21.6705V27H265.611Z" fill="white"/>
<path opacity="0.8" d="M483.487 27V25.7273L487.424 21.6477C487.844 21.2045 488.191 20.8163 488.464 20.483C488.74 20.1458 488.947 19.8258 489.083 19.5227C489.219 19.2197 489.288 18.8977 489.288 18.5568C489.288 18.1705 489.197 17.8371 489.015 17.5568C488.833 17.2727 488.585 17.0549 488.271 16.9034C487.956 16.7481 487.602 16.6705 487.208 16.6705C486.791 16.6705 486.428 16.7557 486.117 16.9261C485.807 17.0966 485.568 17.3371 485.401 17.6477C485.235 17.9583 485.151 18.322 485.151 18.7386H483.475C483.475 18.0303 483.638 17.411 483.964 16.8807C484.29 16.3504 484.737 15.9394 485.305 15.6477C485.873 15.3523 486.519 15.2045 487.242 15.2045C487.973 15.2045 488.617 15.3504 489.174 15.642C489.735 15.9299 490.172 16.3239 490.487 16.8239C490.801 17.3201 490.958 17.8807 490.958 18.5057C490.958 18.9375 490.877 19.3598 490.714 19.7727C490.555 20.1856 490.276 20.6458 489.879 21.1534C489.481 21.6572 488.928 22.2689 488.219 22.9886L485.907 25.4091V25.4943H491.146V27H483.487ZM494.441 27.108C494.13 27.108 493.863 26.9981 493.64 26.7784C493.416 26.5549 493.305 26.286 493.305 25.9716C493.305 25.661 493.416 25.3958 493.64 25.1761C493.863 24.9527 494.13 24.8409 494.441 24.8409C494.752 24.8409 495.019 24.9527 495.242 25.1761C495.466 25.3958 495.577 25.661 495.577 25.9716C495.577 26.1799 495.524 26.3712 495.418 26.5455C495.316 26.7159 495.18 26.8523 495.009 26.9545C494.839 27.0568 494.649 27.108 494.441 27.108ZM502.036 27V15.3636H506.184C507.085 15.3636 507.834 15.5189 508.428 15.8295C509.027 16.1402 509.474 16.5701 509.769 17.1193C510.065 17.6648 510.212 18.2955 510.212 19.0114C510.212 19.7235 510.063 20.3504 509.763 20.892C509.468 21.4299 509.021 21.8485 508.423 22.1477C507.828 22.447 507.08 22.5966 506.178 22.5966H503.036V21.0852H506.019C506.587 21.0852 507.049 21.0038 507.406 20.8409C507.765 20.678 508.029 20.4413 508.195 20.1307C508.362 19.8201 508.445 19.447 508.445 19.0114C508.445 18.572 508.36 18.1913 508.19 17.8693C508.023 17.5473 507.76 17.3011 507.4 17.1307C507.044 16.9564 506.576 16.8693 505.996 16.8693H503.792V27H502.036ZM507.781 21.75L510.656 27H508.656L505.837 21.75H507.781ZM515.864 27.1761C515.004 27.1761 514.264 26.9924 513.643 26.625C513.025 26.2538 512.548 25.733 512.211 25.0625C511.878 24.3883 511.711 23.5985 511.711 22.6932C511.711 21.7992 511.878 21.0114 512.211 20.3295C512.548 19.6477 513.018 19.1155 513.62 18.733C514.226 18.3504 514.934 18.1591 515.745 18.1591C516.237 18.1591 516.715 18.2405 517.177 18.4034C517.639 18.5663 518.054 18.822 518.421 19.1705C518.789 19.5189 519.078 19.9716 519.29 20.5284C519.503 21.0814 519.609 21.7538 519.609 22.5455V23.1477H512.671V21.875H517.944C517.944 21.428 517.853 21.0322 517.671 20.6875C517.489 20.339 517.234 20.0644 516.904 19.8636C516.578 19.6629 516.196 19.5625 515.756 19.5625C515.279 19.5625 514.862 19.6799 514.506 19.9148C514.154 20.1458 513.881 20.4489 513.688 20.8239C513.499 21.1951 513.404 21.5985 513.404 22.0341V23.0284C513.404 23.6117 513.506 24.108 513.711 24.517C513.919 24.9261 514.209 25.2386 514.58 25.4545C514.951 25.6667 515.385 25.7727 515.881 25.7727C516.203 25.7727 516.497 25.7273 516.762 25.6364C517.027 25.5417 517.256 25.4015 517.45 25.2159C517.643 25.0303 517.79 24.8011 517.893 24.5284L519.501 24.8182C519.372 25.2917 519.141 25.7064 518.808 26.0625C518.478 26.4148 518.063 26.6894 517.563 26.8864C517.067 27.0795 516.501 27.1761 515.864 27.1761ZM528.71 18.2727L525.545 27H523.727L520.556 18.2727H522.38L524.59 24.9886H524.681L526.886 18.2727H528.71ZM530.306 27V18.2727H532.005V27H530.306ZM531.164 16.9261C530.869 16.9261 530.615 16.8277 530.403 16.6307C530.194 16.4299 530.09 16.1913 530.09 15.9148C530.09 15.6345 530.194 15.3958 530.403 15.1989C530.615 14.9981 530.869 14.8977 531.164 14.8977C531.46 14.8977 531.711 14.9981 531.92 15.1989C532.132 15.3958 532.238 15.6345 532.238 15.9148C532.238 16.1913 532.132 16.4299 531.92 16.6307C531.711 16.8277 531.46 16.9261 531.164 16.9261ZM538.052 27.1761C537.192 27.1761 536.451 26.9924 535.83 26.625C535.213 26.2538 534.736 25.733 534.398 25.0625C534.065 24.3883 533.898 23.5985 533.898 22.6932C533.898 21.7992 534.065 21.0114 534.398 20.3295C534.736 19.6477 535.205 19.1155 535.808 18.733C536.414 18.3504 537.122 18.1591 537.933 18.1591C538.425 18.1591 538.902 18.2405 539.364 18.4034C539.826 18.5663 540.241 18.822 540.609 19.1705C540.976 19.5189 541.266 19.9716 541.478 20.5284C541.69 21.0814 541.796 21.7538 541.796 22.5455V23.1477H534.859V21.875H540.131C540.131 21.428 540.04 21.0322 539.859 20.6875C539.677 20.339 539.421 20.0644 539.092 19.8636C538.766 19.6629 538.383 19.5625 537.944 19.5625C537.467 19.5625 537.05 19.6799 536.694 19.9148C536.342 20.1458 536.069 20.4489 535.876 20.8239C535.686 21.1951 535.592 21.5985 535.592 22.0341V23.0284C535.592 23.6117 535.694 24.108 535.898 24.517C536.107 24.9261 536.397 25.2386 536.768 25.4545C537.139 25.6667 537.573 25.7727 538.069 25.7727C538.391 25.7727 538.684 25.7273 538.95 25.6364C539.215 25.5417 539.444 25.4015 539.637 25.2159C539.83 25.0303 539.978 24.8011 540.08 24.5284L541.688 24.8182C541.559 25.2917 541.328 25.7064 540.995 26.0625C540.665 26.4148 540.251 26.6894 539.751 26.8864C539.254 27.0795 538.688 27.1761 538.052 27.1761ZM545.558 27L542.989 18.2727H544.745L546.455 24.6818H546.54L548.256 18.2727H550.012L551.717 24.6534H551.802L553.501 18.2727H555.256L552.694 27H550.961L549.188 20.6989H549.058L547.285 27H545.558ZM571.347 21.1818C571.347 22.4242 571.12 23.4924 570.665 24.3864C570.211 25.2765 569.588 25.9621 568.796 26.4432C568.008 26.9205 567.112 27.1591 566.109 27.1591C565.101 27.1591 564.201 26.9205 563.41 26.4432C562.622 25.9621 562.001 25.2746 561.546 24.3807C561.092 23.4867 560.864 22.4205 560.864 21.1818C560.864 19.9394 561.092 18.8731 561.546 17.983C562.001 17.089 562.622 16.4034 563.41 15.9261C564.201 15.4451 565.101 15.2045 566.109 15.2045C567.112 15.2045 568.008 15.4451 568.796 15.9261C569.588 16.4034 570.211 17.089 570.665 17.983C571.12 18.8731 571.347 19.9394 571.347 21.1818ZM569.609 21.1818C569.609 20.2348 569.455 19.4375 569.148 18.7898C568.845 18.1383 568.429 17.6458 567.898 17.3125C567.372 16.9754 566.775 16.8068 566.109 16.8068C565.438 16.8068 564.84 16.9754 564.313 17.3125C563.787 17.6458 563.37 18.1383 563.063 18.7898C562.76 19.4375 562.609 20.2348 562.609 21.1818C562.609 22.1288 562.76 22.928 563.063 23.5795C563.37 24.2273 563.787 24.7197 564.313 25.0568C564.84 25.3902 565.438 25.5568 566.109 25.5568C566.775 25.5568 567.372 25.3902 567.898 25.0568C568.429 24.7197 568.845 24.2273 569.148 23.5795C569.455 22.928 569.609 22.1288 569.609 21.1818ZM573.4 27V18.2727H575.042V19.6591H575.133C575.292 19.1894 575.572 18.8201 575.974 18.5511C576.379 18.2784 576.837 18.142 577.349 18.142C577.455 18.142 577.58 18.1458 577.724 18.1534C577.871 18.161 577.987 18.1705 578.07 18.1818V19.8068C578.002 19.7879 577.881 19.767 577.707 19.7443C577.532 19.7178 577.358 19.7045 577.184 19.7045C576.782 19.7045 576.424 19.7898 576.11 19.9602C575.799 20.1269 575.553 20.3598 575.371 20.6591C575.19 20.9545 575.099 21.2917 575.099 21.6705V27H573.4ZM582.495 27.1705C581.79 27.1705 581.162 26.9905 580.609 26.6307C580.059 26.267 579.628 25.75 579.313 25.0795C579.003 24.4053 578.847 23.5966 578.847 22.6534C578.847 21.7102 579.004 20.9034 579.319 20.233C579.637 19.5625 580.073 19.0492 580.626 18.6932C581.179 18.3371 581.806 18.1591 582.506 18.1591C583.048 18.1591 583.484 18.25 583.813 18.4318C584.147 18.6098 584.404 18.8182 584.586 19.0568C584.772 19.2955 584.915 19.5057 585.018 19.6875H585.12V15.3636H586.819V27H585.16V25.642H585.018C584.915 25.8277 584.768 26.0398 584.575 26.2784C584.385 26.517 584.124 26.7254 583.79 26.9034C583.457 27.0814 583.025 27.1705 582.495 27.1705ZM582.87 25.7216C583.359 25.7216 583.772 25.5928 584.109 25.3352C584.45 25.0739 584.707 24.7121 584.881 24.25C585.059 23.7879 585.148 23.25 585.148 22.6364C585.148 22.0303 585.061 21.5 584.887 21.0455C584.713 20.5909 584.457 20.2367 584.12 19.983C583.783 19.7292 583.366 19.6023 582.87 19.6023C582.359 19.6023 581.933 19.7348 581.592 20C581.251 20.2652 580.993 20.6269 580.819 21.0852C580.648 21.5436 580.563 22.0606 580.563 22.6364C580.563 23.2197 580.65 23.7443 580.825 24.2102C580.999 24.6761 581.256 25.0455 581.597 25.3182C581.942 25.5871 582.366 25.7216 582.87 25.7216ZM593.005 27.1761C592.145 27.1761 591.405 26.9924 590.783 26.625C590.166 26.2538 589.689 25.733 589.352 25.0625C589.018 24.3883 588.852 23.5985 588.852 22.6932C588.852 21.7992 589.018 21.0114 589.352 20.3295C589.689 19.6477 590.158 19.1155 590.761 18.733C591.367 18.3504 592.075 18.1591 592.886 18.1591C593.378 18.1591 593.855 18.2405 594.317 18.4034C594.78 18.5663 595.194 18.822 595.562 19.1705C595.929 19.5189 596.219 19.9716 596.431 20.5284C596.643 21.0814 596.749 21.7538 596.749 22.5455V23.1477H589.812V21.875H595.085C595.085 21.428 594.994 21.0322 594.812 20.6875C594.63 20.339 594.374 20.0644 594.045 19.8636C593.719 19.6629 593.336 19.5625 592.897 19.5625C592.42 19.5625 592.003 19.6799 591.647 19.9148C591.295 20.1458 591.022 20.4489 590.829 20.8239C590.639 21.1951 590.545 21.5985 590.545 22.0341V23.0284C590.545 23.6117 590.647 24.108 590.852 24.517C591.06 24.9261 591.35 25.2386 591.721 25.4545C592.092 25.6667 592.526 25.7727 593.022 25.7727C593.344 25.7727 593.638 25.7273 593.903 25.6364C594.168 25.5417 594.397 25.4015 594.59 25.2159C594.783 25.0303 594.931 24.8011 595.033 24.5284L596.641 24.8182C596.513 25.2917 596.281 25.7064 595.948 26.0625C595.619 26.4148 595.204 26.6894 594.704 26.8864C594.208 27.0795 593.641 27.1761 593.005 27.1761ZM598.634 27V18.2727H600.276V19.6591H600.367C600.526 19.1894 600.807 18.8201 601.208 18.5511C601.613 18.2784 602.072 18.142 602.583 18.142C602.689 18.142 602.814 18.1458 602.958 18.1534C603.106 18.161 603.221 18.1705 603.305 18.1818V19.8068C603.237 19.7879 603.115 19.767 602.941 19.7443C602.767 19.7178 602.593 19.7045 602.418 19.7045C602.017 19.7045 601.659 19.7898 601.344 19.9602C601.034 20.1269 600.788 20.3598 600.606 20.6591C600.424 20.9545 600.333 21.2917 600.333 21.6705V27H598.634Z" fill="white"/>
<path opacity="0.8" d="M815.444 27.1591C814.664 27.1591 813.967 27.0246 813.353 26.7557C812.743 26.4867 812.26 26.1136 811.904 25.6364C811.552 25.1553 811.362 24.5985 811.336 23.9659H813.12C813.143 24.3106 813.258 24.6098 813.467 24.8636C813.679 25.1136 813.955 25.3068 814.296 25.4432C814.637 25.5795 815.016 25.6477 815.433 25.6477C815.891 25.6477 816.296 25.5682 816.648 25.4091C817.004 25.25 817.283 25.0284 817.484 24.7443C817.684 24.4564 817.785 24.125 817.785 23.75C817.785 23.3598 817.684 23.017 817.484 22.7216C817.287 22.4223 816.997 22.1875 816.614 22.017C816.236 21.8466 815.777 21.7614 815.239 21.7614H814.256V20.3295H815.239C815.671 20.3295 816.05 20.2519 816.376 20.0966C816.705 19.9413 816.963 19.7254 817.148 19.4489C817.334 19.1686 817.427 18.8409 817.427 18.4659C817.427 18.1061 817.345 17.7936 817.183 17.5284C817.023 17.2595 816.796 17.0492 816.501 16.8977C816.209 16.7462 815.864 16.6705 815.467 16.6705C815.088 16.6705 814.734 16.7405 814.404 16.8807C814.078 17.017 813.813 17.214 813.609 17.4716C813.404 17.7254 813.294 18.0303 813.279 18.3864H811.58C811.599 17.7576 811.785 17.2045 812.137 16.7273C812.493 16.25 812.963 15.8769 813.546 15.608C814.129 15.339 814.777 15.2045 815.489 15.2045C816.236 15.2045 816.879 15.3504 817.421 15.642C817.967 15.9299 818.387 16.3144 818.683 16.7955C818.982 17.2765 819.129 17.803 819.126 18.375C819.129 19.0265 818.948 19.5795 818.58 20.0341C818.217 20.4886 817.732 20.7936 817.126 20.9489V21.0398C817.898 21.1572 818.497 21.464 818.921 21.9602C819.349 22.4564 819.561 23.072 819.558 23.8068C819.561 24.447 819.383 25.0208 819.023 25.5284C818.667 26.036 818.181 26.4356 817.563 26.7273C816.946 27.0152 816.239 27.1591 815.444 27.1591ZM822.504 27.108C822.193 27.108 821.926 26.9981 821.702 26.7784C821.479 26.5549 821.367 26.286 821.367 25.9716C821.367 25.661 821.479 25.3958 821.702 25.1761C821.926 24.9527 822.193 24.8409 822.504 24.8409C822.814 24.8409 823.081 24.9527 823.305 25.1761C823.528 25.3958 823.64 25.661 823.64 25.9716C823.64 26.1799 823.587 26.3712 823.481 26.5455C823.379 26.7159 823.242 26.8523 823.072 26.9545C822.901 27.0568 822.712 27.108 822.504 27.108ZM830.099 27V15.3636H834.246C835.152 15.3636 835.902 15.5284 836.496 15.858C837.091 16.1875 837.536 16.6383 837.832 17.2102C838.127 17.7784 838.275 18.4186 838.275 19.1307C838.275 19.8466 838.125 20.4905 837.826 21.0625C837.531 21.6307 837.084 22.0814 836.485 22.4148C835.89 22.7443 835.142 22.9091 834.241 22.9091H831.388V21.4205H834.082C834.654 21.4205 835.118 21.322 835.474 21.125C835.83 20.9242 836.091 20.6515 836.258 20.3068C836.424 19.9621 836.508 19.5701 836.508 19.1307C836.508 18.6913 836.424 18.3011 836.258 17.9602C836.091 17.6193 835.828 17.3523 835.468 17.1591C835.112 16.9659 834.642 16.8693 834.059 16.8693H831.854V27H830.099ZM842.658 27.1932C842.105 27.1932 841.605 27.0909 841.158 26.8864C840.711 26.678 840.357 26.3769 840.096 25.983C839.838 25.589 839.71 25.1061 839.71 24.5341C839.71 24.0417 839.804 23.6364 839.994 23.3182C840.183 23 840.439 22.7481 840.761 22.5625C841.083 22.3769 841.442 22.2367 841.84 22.142C842.238 22.0473 842.643 21.9754 843.056 21.9261C843.579 21.8655 844.003 21.8163 844.329 21.7784C844.655 21.7367 844.891 21.6705 845.039 21.5795C845.187 21.4886 845.261 21.3409 845.261 21.1364V21.0966C845.261 20.6004 845.121 20.2159 844.84 19.9432C844.564 19.6705 844.151 19.5341 843.602 19.5341C843.03 19.5341 842.579 19.661 842.249 19.9148C841.924 20.1648 841.698 20.4432 841.573 20.75L839.977 20.3864C840.166 19.8561 840.442 19.428 840.806 19.1023C841.174 18.7727 841.596 18.5341 842.073 18.3864C842.55 18.2348 843.052 18.1591 843.579 18.1591C843.927 18.1591 844.297 18.2008 844.687 18.2841C845.081 18.3636 845.448 18.5114 845.789 18.7273C846.134 18.9432 846.416 19.2519 846.636 19.6534C846.855 20.0511 846.965 20.5682 846.965 21.2045V27H845.306V25.8068H845.238C845.128 26.0265 844.963 26.2424 844.744 26.4545C844.524 26.6667 844.242 26.8428 843.897 26.983C843.552 27.1231 843.139 27.1932 842.658 27.1932ZM843.028 25.8295C843.497 25.8295 843.899 25.7367 844.232 25.5511C844.569 25.3655 844.825 25.1231 844.999 24.8239C845.177 24.5208 845.266 24.197 845.266 23.8523V22.7273C845.206 22.7879 845.088 22.8447 844.914 22.8977C844.744 22.947 844.549 22.9905 844.329 23.0284C844.109 23.0625 843.895 23.0947 843.687 23.125C843.478 23.1515 843.304 23.1742 843.164 23.1932C842.835 23.2348 842.533 23.3049 842.261 23.4034C841.992 23.5019 841.776 23.6439 841.613 23.8295C841.454 24.0114 841.374 24.2538 841.374 24.5568C841.374 24.9773 841.53 25.2955 841.84 25.5114C842.151 25.7235 842.547 25.8295 843.028 25.8295ZM849.989 30.2727C849.736 30.2727 849.504 30.2519 849.296 30.2102C849.088 30.1723 848.933 30.1307 848.83 30.0852L849.239 28.6932C849.55 28.7765 849.826 28.8125 850.069 28.8011C850.311 28.7898 850.525 28.6989 850.711 28.5284C850.9 28.358 851.067 28.0795 851.211 27.6932L851.421 27.1136L848.228 18.2727H850.046L852.256 25.0455H852.347L854.558 18.2727H856.381L852.785 28.1648C852.618 28.6193 852.406 29.0038 852.148 29.3182C851.891 29.6364 851.584 29.875 851.228 30.0341C850.872 30.1932 850.459 30.2727 849.989 30.2727ZM857.978 27V18.2727H859.609V19.6932H859.717C859.898 19.2121 860.196 18.8371 860.609 18.5682C861.022 18.2955 861.516 18.1591 862.092 18.1591C862.675 18.1591 863.164 18.2955 863.558 18.5682C863.955 18.8409 864.249 19.2159 864.438 19.6932H864.529C864.737 19.2273 865.069 18.8561 865.523 18.5795C865.978 18.2992 866.52 18.1591 867.148 18.1591C867.94 18.1591 868.586 18.4072 869.086 18.9034C869.59 19.3996 869.842 20.1477 869.842 21.1477V27H868.143V21.3068C868.143 20.7159 867.982 20.2879 867.66 20.0227C867.338 19.7576 866.953 19.625 866.506 19.625C865.953 19.625 865.523 19.7955 865.217 20.1364C864.91 20.4735 864.756 20.9072 864.756 21.4375V27H863.063V21.1989C863.063 20.7254 862.915 20.3447 862.62 20.0568C862.325 19.7689 861.94 19.625 861.467 19.625C861.145 19.625 860.847 19.7102 860.575 19.8807C860.306 20.0473 860.088 20.2803 859.921 20.5795C859.758 20.8788 859.677 21.2254 859.677 21.6193V27H857.978ZM875.88 27.1761C875.02 27.1761 874.28 26.9924 873.658 26.625C873.041 26.2538 872.564 25.733 872.227 25.0625C871.893 24.3883 871.727 23.5985 871.727 22.6932C871.727 21.7992 871.893 21.0114 872.227 20.3295C872.564 19.6477 873.033 19.1155 873.636 18.733C874.242 18.3504 874.95 18.1591 875.761 18.1591C876.253 18.1591 876.73 18.2405 877.192 18.4034C877.655 18.5663 878.069 18.822 878.437 19.1705C878.804 19.5189 879.094 19.9716 879.306 20.5284C879.518 21.0814 879.624 21.7538 879.624 22.5455V23.1477H872.687V21.875H877.96C877.96 21.428 877.869 21.0322 877.687 20.6875C877.505 20.339 877.249 20.0644 876.92 19.8636C876.594 19.6629 876.211 19.5625 875.772 19.5625C875.295 19.5625 874.878 19.6799 874.522 19.9148C874.17 20.1458 873.897 20.4489 873.704 20.8239C873.514 21.1951 873.42 21.5985 873.42 22.0341V23.0284C873.42 23.6117 873.522 24.108 873.727 24.517C873.935 24.9261 874.225 25.2386 874.596 25.4545C874.967 25.6667 875.401 25.7727 875.897 25.7727C876.219 25.7727 876.513 25.7273 876.778 25.6364C877.043 25.5417 877.272 25.4015 877.465 25.2159C877.658 25.0303 877.806 24.8011 877.908 24.5284L879.516 24.8182C879.388 25.2917 879.156 25.7064 878.823 26.0625C878.494 26.4148 878.079 26.6894 877.579 26.8864C877.083 27.0795 876.516 27.1761 875.88 27.1761ZM883.208 21.8182V27H881.509V18.2727H883.14V19.6932H883.248C883.449 19.2311 883.763 18.8598 884.191 18.5795C884.623 18.2992 885.166 18.1591 885.822 18.1591C886.416 18.1591 886.937 18.2841 887.384 18.5341C887.831 18.7803 888.178 19.1477 888.424 19.6364C888.67 20.125 888.793 20.7292 888.793 21.4489V27H887.094V21.6534C887.094 21.0208 886.93 20.5265 886.6 20.1705C886.271 19.8106 885.818 19.6307 885.242 19.6307C884.848 19.6307 884.498 19.7159 884.191 19.8864C883.888 20.0568 883.647 20.3068 883.469 20.6364C883.295 20.9621 883.208 21.3561 883.208 21.8182ZM895.146 18.2727V19.6364H890.379V18.2727H895.146ZM891.657 16.1818H893.356V24.4375C893.356 24.767 893.405 25.0152 893.504 25.1818C893.602 25.3447 893.729 25.4564 893.884 25.517C894.043 25.5739 894.216 25.6023 894.401 25.6023C894.538 25.6023 894.657 25.5928 894.759 25.5739C894.862 25.5549 894.941 25.5398 894.998 25.5284L895.305 26.9318C895.206 26.9697 895.066 27.0076 894.884 27.0455C894.702 27.0871 894.475 27.1098 894.202 27.1136C893.755 27.1212 893.339 27.0417 892.952 26.875C892.566 26.7083 892.254 26.4508 892.015 26.1023C891.776 25.7538 891.657 25.3163 891.657 24.7898V16.1818ZM903.151 15.3636V27H901.396V15.3636H903.151ZM907.271 21.8182V27H905.572V18.2727H907.202V19.6932H907.31C907.511 19.2311 907.826 18.8598 908.254 18.5795C908.685 18.2992 909.229 18.1591 909.884 18.1591C910.479 18.1591 911 18.2841 911.447 18.5341C911.894 18.7803 912.24 19.1477 912.487 19.6364C912.733 20.125 912.856 20.7292 912.856 21.4489V27H911.157V21.6534C911.157 21.0208 910.992 20.5265 910.663 20.1705C910.333 19.8106 909.88 19.6307 909.305 19.6307C908.911 19.6307 908.56 19.7159 908.254 19.8864C907.951 20.0568 907.71 20.3068 907.532 20.6364C907.358 20.9621 907.271 21.3561 907.271 21.8182ZM919.288 18.2727V19.6364H914.356V18.2727H919.288ZM915.708 27V17.2614C915.708 16.7159 915.827 16.2633 916.066 15.9034C916.305 15.5398 916.621 15.2689 917.015 15.0909C917.409 14.9091 917.837 14.8182 918.299 14.8182C918.64 14.8182 918.932 14.8466 919.174 14.9034C919.416 14.9564 919.596 15.0057 919.714 15.0511L919.316 16.4261C919.237 16.4034 919.134 16.3769 919.009 16.3466C918.884 16.3125 918.733 16.2955 918.555 16.2955C918.142 16.2955 917.846 16.3977 917.668 16.6023C917.494 16.8068 917.407 17.1023 917.407 17.4886V27H915.708ZM924.373 27.1761C923.555 27.1761 922.841 26.9886 922.231 26.6136C921.621 26.2386 921.147 25.714 920.81 25.0398C920.473 24.3655 920.305 23.5777 920.305 22.6761C920.305 21.7708 920.473 20.9792 920.81 20.3011C921.147 19.6231 921.621 19.0966 922.231 18.7216C922.841 18.3466 923.555 18.1591 924.373 18.1591C925.191 18.1591 925.905 18.3466 926.515 18.7216C927.125 19.0966 927.598 19.6231 927.935 20.3011C928.272 20.9792 928.441 21.7708 928.441 22.6761C928.441 23.5777 928.272 24.3655 927.935 25.0398C927.598 25.714 927.125 26.2386 926.515 26.6136C925.905 26.9886 925.191 27.1761 924.373 27.1761ZM924.379 25.75C924.909 25.75 925.348 25.6098 925.697 25.3295C926.045 25.0492 926.303 24.6761 926.469 24.2102C926.64 23.7443 926.725 23.2311 926.725 22.6705C926.725 22.1136 926.64 21.6023 926.469 21.1364C926.303 20.6667 926.045 20.2898 925.697 20.0057C925.348 19.7216 924.909 19.5795 924.379 19.5795C923.844 19.5795 923.401 19.7216 923.049 20.0057C922.701 20.2898 922.441 20.6667 922.271 21.1364C922.104 21.6023 922.021 22.1136 922.021 22.6705C922.021 23.2311 922.104 23.7443 922.271 24.2102C922.441 24.6761 922.701 25.0492 923.049 25.3295C923.401 25.6098 923.844 25.75 924.379 25.75ZM930.337 27V18.2727H931.979V19.6591H932.07C932.229 19.1894 932.51 18.8201 932.911 18.5511C933.317 18.2784 933.775 18.142 934.286 18.142C934.392 18.142 934.517 18.1458 934.661 18.1534C934.809 18.161 934.924 18.1705 935.008 18.1818V19.8068C934.94 19.7879 934.818 19.767 934.644 19.7443C934.47 19.7178 934.296 19.7045 934.121 19.7045C933.72 19.7045 933.362 19.7898 933.048 19.9602C932.737 20.1269 932.491 20.3598 932.309 20.6591C932.127 20.9545 932.036 21.2917 932.036 21.6705V27H930.337ZM936.478 27V18.2727H938.109V19.6932H938.217C938.398 19.2121 938.696 18.8371 939.109 18.5682C939.522 18.2955 940.016 18.1591 940.592 18.1591C941.175 18.1591 941.664 18.2955 942.058 18.5682C942.455 18.8409 942.749 19.2159 942.938 19.6932H943.029C943.237 19.2273 943.569 18.8561 944.023 18.5795C944.478 18.2992 945.02 18.1591 945.648 18.1591C946.44 18.1591 947.086 18.4072 947.586 18.9034C948.09 19.3996 948.342 20.1477 948.342 21.1477V27H946.643V21.3068C946.643 20.7159 946.482 20.2879 946.16 20.0227C945.838 19.7576 945.453 19.625 945.006 19.625C944.453 19.625 944.023 19.7955 943.717 20.1364C943.41 20.4735 943.256 20.9072 943.256 21.4375V27H941.563V21.1989C941.563 20.7254 941.415 20.3447 941.12 20.0568C940.825 19.7689 940.44 19.625 939.967 19.625C939.645 19.625 939.347 19.7102 939.075 19.8807C938.806 20.0473 938.588 20.2803 938.421 20.5795C938.258 20.8788 938.177 21.2254 938.177 21.6193V27H936.478ZM953.158 27.1932C952.605 27.1932 952.105 27.0909 951.658 26.8864C951.211 26.678 950.857 26.3769 950.596 25.983C950.338 25.589 950.21 25.1061 950.21 24.5341C950.21 24.0417 950.304 23.6364 950.494 23.3182C950.683 23 950.939 22.7481 951.261 22.5625C951.583 22.3769 951.942 22.2367 952.34 22.142C952.738 22.0473 953.143 21.9754 953.556 21.9261C954.079 21.8655 954.503 21.8163 954.829 21.7784C955.155 21.7367 955.391 21.6705 955.539 21.5795C955.687 21.4886 955.761 21.3409 955.761 21.1364V21.0966C955.761 20.6004 955.621 20.2159 955.34 19.9432C955.064 19.6705 954.651 19.5341 954.102 19.5341C953.53 19.5341 953.079 19.661 952.749 19.9148C952.424 20.1648 952.198 20.4432 952.073 20.75L950.477 20.3864C950.666 19.8561 950.942 19.428 951.306 19.1023C951.674 18.7727 952.096 18.5341 952.573 18.3864C953.05 18.2348 953.552 18.1591 954.079 18.1591C954.427 18.1591 954.797 18.2008 955.187 18.2841C955.581 18.3636 955.948 18.5114 956.289 18.7273C956.634 18.9432 956.916 19.2519 957.136 19.6534C957.355 20.0511 957.465 20.5682 957.465 21.2045V27H955.806V25.8068H955.738C955.628 26.0265 955.463 26.2424 955.244 26.4545C955.024 26.6667 954.742 26.8428 954.397 26.983C954.052 27.1231 953.639 27.1932 953.158 27.1932ZM953.528 25.8295C953.997 25.8295 954.399 25.7367 954.732 25.5511C955.069 25.3655 955.325 25.1231 955.499 24.8239C955.677 24.5208 955.766 24.197 955.766 23.8523V22.7273C955.706 22.7879 955.588 22.8447 955.414 22.8977C955.244 22.947 955.049 22.9905 954.829 23.0284C954.609 23.0625 954.395 23.0947 954.187 23.125C953.978 23.1515 953.804 23.1742 953.664 23.1932C953.335 23.2348 953.033 23.3049 952.761 23.4034C952.492 23.5019 952.276 23.6439 952.113 23.8295C951.954 24.0114 951.874 24.2538 951.874 24.5568C951.874 24.9773 952.03 25.2955 952.34 25.5114C952.651 25.7235 953.047 25.8295 953.528 25.8295ZM963.802 18.2727V19.6364H959.035V18.2727H963.802ZM960.313 16.1818H962.012V24.4375C962.012 24.767 962.061 25.0152 962.16 25.1818C962.258 25.3447 962.385 25.4564 962.54 25.517C962.7 25.5739 962.872 25.6023 963.058 25.6023C963.194 25.6023 963.313 25.5928 963.415 25.5739C963.518 25.5549 963.597 25.5398 963.654 25.5284L963.961 26.9318C963.862 26.9697 963.722 27.0076 963.54 27.0455C963.359 27.0871 963.131 27.1098 962.859 27.1136C962.412 27.1212 961.995 27.0417 961.609 26.875C961.222 26.7083 960.91 26.4508 960.671 26.1023C960.433 25.7538 960.313 25.3163 960.313 24.7898V16.1818ZM965.681 27V18.2727H967.38V27H965.681ZM966.539 16.9261C966.244 16.9261 965.99 16.8277 965.778 16.6307C965.569 16.4299 965.465 16.1913 965.465 15.9148C965.465 15.6345 965.569 15.3958 965.778 15.1989C965.99 14.9981 966.244 14.8977 966.539 14.8977C966.835 14.8977 967.086 14.9981 967.295 15.1989C967.507 15.3958 967.613 15.6345 967.613 15.9148C967.613 16.1913 967.507 16.4299 967.295 16.6307C967.086 16.8277 966.835 16.9261 966.539 16.9261ZM973.342 27.1761C972.523 27.1761 971.809 26.9886 971.2 26.6136C970.59 26.2386 970.116 25.714 969.779 25.0398C969.442 24.3655 969.273 23.5777 969.273 22.6761C969.273 21.7708 969.442 20.9792 969.779 20.3011C970.116 19.6231 970.59 19.0966 971.2 18.7216C971.809 18.3466 972.523 18.1591 973.342 18.1591C974.16 18.1591 974.874 18.3466 975.484 18.7216C976.094 19.0966 976.567 19.6231 976.904 20.3011C977.241 20.9792 977.41 21.7708 977.41 22.6761C977.41 23.5777 977.241 24.3655 976.904 25.0398C976.567 25.714 976.094 26.2386 975.484 26.6136C974.874 26.9886 974.16 27.1761 973.342 27.1761ZM973.347 25.75C973.878 25.75 974.317 25.6098 974.665 25.3295C975.014 25.0492 975.272 24.6761 975.438 24.2102C975.609 23.7443 975.694 23.2311 975.694 22.6705C975.694 22.1136 975.609 21.6023 975.438 21.1364C975.272 20.6667 975.014 20.2898 974.665 20.0057C974.317 19.7216 973.878 19.5795 973.347 19.5795C972.813 19.5795 972.37 19.7216 972.018 20.0057C971.669 20.2898 971.41 20.6667 971.239 21.1364C971.073 21.6023 970.989 22.1136 970.989 22.6705C970.989 23.2311 971.073 23.7443 971.239 24.2102C971.41 24.6761 971.669 25.0492 972.018 25.3295C972.37 25.6098 972.813 25.75 973.347 25.75ZM981.005 21.8182V27H979.306V18.2727H980.937V19.6932H981.045C981.246 19.2311 981.56 18.8598 981.988 18.5795C982.42 18.2992 982.963 18.1591 983.619 18.1591C984.213 18.1591 984.734 18.2841 985.181 18.5341C985.628 18.7803 985.975 19.1477 986.221 19.6364C986.467 20.125 986.59 20.7292 986.59 21.4489V27H984.891V21.6534C984.891 21.0208 984.727 20.5265 984.397 20.1705C984.067 19.8106 983.615 19.6307 983.039 19.6307C982.645 19.6307 982.295 19.7159 981.988 19.8864C981.685 20.0568 981.444 20.3068 981.266 20.6364C981.092 20.9621 981.005 21.3561 981.005 21.8182Z" fill="white"/>
<path d="M1185.09 24.7273V23.3068L1190.12 15.3636H1191.24V17.4545H1190.53L1186.93 23.1477V23.2386H1193.83V24.7273H1185.09ZM1190.61 27V24.2955L1190.62 23.6477V15.3636H1192.29V27H1190.61ZM1196.51 27.108C1196.2 27.108 1195.93 26.9981 1195.71 26.7784C1195.49 26.5549 1195.38 26.286 1195.38 25.9716C1195.38 25.661 1195.49 25.3958 1195.71 25.1761C1195.93 24.9527 1196.2 24.8409 1196.51 24.8409C1196.82 24.8409 1197.09 24.9527 1197.31 25.1761C1197.54 25.3958 1197.65 25.661 1197.65 25.9716C1197.65 26.1799 1197.59 26.3712 1197.49 26.5455C1197.39 26.7159 1197.25 26.8523 1197.08 26.9545C1196.91 27.0568 1196.72 27.108 1196.51 27.108ZM1213.77 19.1477H1212C1211.93 18.7689 1211.8 18.4356 1211.62 18.1477C1211.43 17.8598 1211.21 17.6155 1210.94 17.4148C1210.67 17.214 1210.37 17.0625 1210.03 16.9602C1209.7 16.858 1209.35 16.8068 1208.98 16.8068C1208.31 16.8068 1207.71 16.9754 1207.18 17.3125C1206.65 17.6496 1206.24 18.1439 1205.93 18.7955C1205.63 19.447 1205.48 20.2424 1205.48 21.1818C1205.48 22.1288 1205.63 22.928 1205.93 23.5795C1206.24 24.2311 1206.66 24.7235 1207.19 25.0568C1207.72 25.3902 1208.31 25.5568 1208.98 25.5568C1209.34 25.5568 1209.69 25.5076 1210.02 25.4091C1210.35 25.3068 1210.66 25.1572 1210.92 24.9602C1211.19 24.7633 1211.42 24.5227 1211.61 24.2386C1211.8 23.9508 1211.93 23.6212 1212 23.25L1213.77 23.2557C1213.68 23.8277 1213.49 24.3542 1213.22 24.8352C1212.95 25.3125 1212.6 25.7254 1212.18 26.0739C1211.76 26.4186 1211.28 26.6856 1210.74 26.875C1210.2 27.0644 1209.6 27.1591 1208.96 27.1591C1207.96 27.1591 1207.06 26.9205 1206.27 26.4432C1205.48 25.9621 1204.86 25.2746 1204.41 24.3807C1203.96 23.4867 1203.73 22.4205 1203.73 21.1818C1203.73 19.9394 1203.96 18.8731 1204.41 17.983C1204.87 17.089 1205.49 16.4034 1206.28 15.9261C1207.06 15.4451 1207.96 15.2045 1208.96 15.2045C1209.58 15.2045 1210.16 15.2936 1210.69 15.4716C1211.23 15.6458 1211.71 15.9034 1212.14 16.2443C1212.57 16.5814 1212.92 16.9943 1213.2 17.483C1213.48 17.9678 1213.67 18.5227 1213.77 19.1477ZM1219.41 27.1761C1218.59 27.1761 1217.88 26.9886 1217.27 26.6136C1216.66 26.2386 1216.19 25.714 1215.85 25.0398C1215.51 24.3655 1215.34 23.5777 1215.34 22.6761C1215.34 21.7708 1215.51 20.9792 1215.85 20.3011C1216.19 19.6231 1216.66 19.0966 1217.27 18.7216C1217.88 18.3466 1218.59 18.1591 1219.41 18.1591C1220.23 18.1591 1220.94 18.3466 1221.55 18.7216C1222.16 19.0966 1222.64 19.6231 1222.97 20.3011C1223.31 20.9792 1223.48 21.7708 1223.48 22.6761C1223.48 23.5777 1223.31 24.3655 1222.97 25.0398C1222.64 25.714 1222.16 26.2386 1221.55 26.6136C1220.94 26.9886 1220.23 27.1761 1219.41 27.1761ZM1219.42 25.75C1219.95 25.75 1220.39 25.6098 1220.74 25.3295C1221.08 25.0492 1221.34 24.6761 1221.51 24.2102C1221.68 23.7443 1221.76 23.2311 1221.76 22.6705C1221.76 22.1136 1221.68 21.6023 1221.51 21.1364C1221.34 20.6667 1221.08 20.2898 1220.74 20.0057C1220.39 19.7216 1219.95 19.5795 1219.42 19.5795C1218.88 19.5795 1218.44 19.7216 1218.09 20.0057C1217.74 20.2898 1217.48 20.6667 1217.31 21.1364C1217.14 21.6023 1217.06 22.1136 1217.06 22.6705C1217.06 23.2311 1217.14 23.7443 1217.31 24.2102C1217.48 24.6761 1217.74 25.0492 1218.09 25.3295C1218.44 25.6098 1218.88 25.75 1219.42 25.75ZM1225.38 27V18.2727H1227.01V19.6932H1227.12C1227.3 19.2121 1227.59 18.8371 1228.01 18.5682C1228.42 18.2955 1228.91 18.1591 1229.49 18.1591C1230.07 18.1591 1230.56 18.2955 1230.96 18.5682C1231.35 18.8409 1231.65 19.2159 1231.84 19.6932H1231.93C1232.14 19.2273 1232.47 18.8561 1232.92 18.5795C1233.38 18.2992 1233.92 18.1591 1234.55 18.1591C1235.34 18.1591 1235.98 18.4072 1236.48 18.9034C1236.99 19.3996 1237.24 20.1477 1237.24 21.1477V27H1235.54V21.3068C1235.54 20.7159 1235.38 20.2879 1235.06 20.0227C1234.74 19.7576 1234.35 19.625 1233.9 19.625C1233.35 19.625 1232.92 19.7955 1232.62 20.1364C1232.31 20.4735 1232.15 20.9072 1232.15 21.4375V27H1230.46V21.1989C1230.46 20.7254 1230.31 20.3447 1230.02 20.0568C1229.72 19.7689 1229.34 19.625 1228.87 19.625C1228.54 19.625 1228.25 19.7102 1227.97 19.8807C1227.7 20.0473 1227.49 20.2803 1227.32 20.5795C1227.16 20.8788 1227.08 21.2254 1227.08 21.6193V27H1225.38ZM1239.52 30.2727V18.2727H1241.18V19.6875H1241.32C1241.42 19.5057 1241.56 19.2955 1241.74 19.0568C1241.93 18.8182 1242.19 18.6098 1242.52 18.4318C1242.85 18.25 1243.28 18.1591 1243.82 18.1591C1244.53 18.1591 1245.16 18.3371 1245.71 18.6932C1246.26 19.0492 1246.7 19.5625 1247.01 20.233C1247.33 20.9034 1247.49 21.7102 1247.49 22.6534C1247.49 23.5966 1247.33 24.4053 1247.02 25.0795C1246.7 25.75 1246.27 26.267 1245.72 26.6307C1245.17 26.9905 1244.55 27.1705 1243.84 27.1705C1243.31 27.1705 1242.88 27.0814 1242.54 26.9034C1242.21 26.7254 1241.95 26.517 1241.76 26.2784C1241.57 26.0398 1241.42 25.8277 1241.32 25.642H1241.22V30.2727H1239.52ZM1241.18 22.6364C1241.18 23.25 1241.27 23.7879 1241.45 24.25C1241.63 24.7121 1241.88 25.0739 1242.22 25.3352C1242.56 25.5928 1242.97 25.7216 1243.46 25.7216C1243.97 25.7216 1244.39 25.5871 1244.73 25.3182C1245.07 25.0455 1245.33 24.6761 1245.51 24.2102C1245.68 23.7443 1245.77 23.2197 1245.77 22.6364C1245.77 22.0606 1245.69 21.5436 1245.51 21.0852C1245.34 20.6269 1245.08 20.2652 1244.74 20C1244.4 19.7348 1243.97 19.6023 1243.46 19.6023C1242.97 19.6023 1242.55 19.7292 1242.21 19.983C1241.87 20.2367 1241.62 20.5909 1241.44 21.0455C1241.27 21.5 1241.18 22.0303 1241.18 22.6364ZM1251.09 15.3636V27H1249.39V15.3636H1251.09ZM1257.14 27.1761C1256.28 27.1761 1255.54 26.9924 1254.92 26.625C1254.3 26.2538 1253.82 25.733 1253.48 25.0625C1253.15 24.3883 1252.98 23.5985 1252.98 22.6932C1252.98 21.7992 1253.15 21.0114 1253.48 20.3295C1253.82 19.6477 1254.29 19.1155 1254.89 18.733C1255.5 18.3504 1256.21 18.1591 1257.02 18.1591C1257.51 18.1591 1257.99 18.2405 1258.45 18.4034C1258.91 18.5663 1259.33 18.822 1259.69 19.1705C1260.06 19.5189 1260.35 19.9716 1260.56 20.5284C1260.78 21.0814 1260.88 21.7538 1260.88 22.5455V23.1477H1253.94V21.875H1259.22C1259.22 21.428 1259.13 21.0322 1258.94 20.6875C1258.76 20.339 1258.51 20.0644 1258.18 19.8636C1257.85 19.6629 1257.47 19.5625 1257.03 19.5625C1256.55 19.5625 1256.14 19.6799 1255.78 19.9148C1255.43 20.1458 1255.15 20.4489 1254.96 20.8239C1254.77 21.1951 1254.68 21.5985 1254.68 22.0341V23.0284C1254.68 23.6117 1254.78 24.108 1254.98 24.517C1255.19 24.9261 1255.48 25.2386 1255.85 25.4545C1256.22 25.6667 1256.66 25.7727 1257.15 25.7727C1257.48 25.7727 1257.77 25.7273 1258.04 25.6364C1258.3 25.5417 1258.53 25.4015 1258.72 25.2159C1258.92 25.0303 1259.06 24.8011 1259.17 24.5284L1260.77 24.8182C1260.65 25.2917 1260.41 25.7064 1260.08 26.0625C1259.75 26.4148 1259.34 26.6894 1258.84 26.8864C1258.34 27.0795 1257.77 27.1761 1257.14 27.1761ZM1266.84 18.2727V19.6364H1262.07V18.2727H1266.84ZM1263.35 16.1818H1265.05V24.4375C1265.05 24.767 1265.1 25.0152 1265.2 25.1818C1265.3 25.3447 1265.42 25.4564 1265.58 25.517C1265.74 25.5739 1265.91 25.6023 1266.1 25.6023C1266.23 25.6023 1266.35 25.5928 1266.45 25.5739C1266.56 25.5549 1266.64 25.5398 1266.69 25.5284L1267 26.9318C1266.9 26.9697 1266.76 27.0076 1266.58 27.0455C1266.4 27.0871 1266.17 27.1098 1265.9 27.1136C1265.45 27.1212 1265.03 27.0417 1264.65 26.875C1264.26 26.7083 1263.95 26.4508 1263.71 26.1023C1263.47 25.7538 1263.35 25.3163 1263.35 24.7898V16.1818ZM1272.39 27.1761C1271.53 27.1761 1270.79 26.9924 1270.17 26.625C1269.55 26.2538 1269.07 25.733 1268.73 25.0625C1268.4 24.3883 1268.23 23.5985 1268.23 22.6932C1268.23 21.7992 1268.4 21.0114 1268.73 20.3295C1269.07 19.6477 1269.54 19.1155 1270.14 18.733C1270.75 18.3504 1271.46 18.1591 1272.27 18.1591C1272.76 18.1591 1273.24 18.2405 1273.7 18.4034C1274.16 18.5663 1274.58 18.822 1274.94 19.1705C1275.31 19.5189 1275.6 19.9716 1275.81 20.5284C1276.03 21.0814 1276.13 21.7538 1276.13 22.5455V23.1477H1269.19V21.875H1274.47C1274.47 21.428 1274.38 21.0322 1274.19 20.6875C1274.01 20.339 1273.76 20.0644 1273.43 19.8636C1273.1 19.6629 1272.72 19.5625 1272.28 19.5625C1271.8 19.5625 1271.39 19.6799 1271.03 19.9148C1270.68 20.1458 1270.4 20.4489 1270.21 20.8239C1270.02 21.1951 1269.93 21.5985 1269.93 22.0341V23.0284C1269.93 23.6117 1270.03 24.108 1270.23 24.517C1270.44 24.9261 1270.73 25.2386 1271.1 25.4545C1271.47 25.6667 1271.91 25.7727 1272.4 25.7727C1272.73 25.7727 1273.02 25.7273 1273.29 25.6364C1273.55 25.5417 1273.78 25.4015 1273.97 25.2159C1274.17 25.0303 1274.31 24.8011 1274.42 24.5284L1276.02 24.8182C1275.9 25.2917 1275.66 25.7064 1275.33 26.0625C1275 26.4148 1274.59 26.6894 1274.09 26.8864C1273.59 27.0795 1273.02 27.1761 1272.39 27.1761ZM1292.5 21.1818C1292.5 22.4242 1292.27 23.4924 1291.81 24.3864C1291.36 25.2765 1290.74 25.9621 1289.94 26.4432C1289.16 26.9205 1288.26 27.1591 1287.26 27.1591C1286.25 27.1591 1285.35 26.9205 1284.56 26.4432C1283.77 25.9621 1283.15 25.2746 1282.69 24.3807C1282.24 23.4867 1282.01 22.4205 1282.01 21.1818C1282.01 19.9394 1282.24 18.8731 1282.69 17.983C1283.15 17.089 1283.77 16.4034 1284.56 15.9261C1285.35 15.4451 1286.25 15.2045 1287.26 15.2045C1288.26 15.2045 1289.16 15.4451 1289.94 15.9261C1290.74 16.4034 1291.36 17.089 1291.81 17.983C1292.27 18.8731 1292.5 19.9394 1292.5 21.1818ZM1290.76 21.1818C1290.76 20.2348 1290.6 19.4375 1290.3 18.7898C1289.99 18.1383 1289.58 17.6458 1289.05 17.3125C1288.52 16.9754 1287.92 16.8068 1287.26 16.8068C1286.59 16.8068 1285.99 16.9754 1285.46 17.3125C1284.94 17.6458 1284.52 18.1383 1284.21 18.7898C1283.91 19.4375 1283.76 20.2348 1283.76 21.1818C1283.76 22.1288 1283.91 22.928 1284.21 23.5795C1284.52 24.2273 1284.94 24.7197 1285.46 25.0568C1285.99 25.3902 1286.59 25.5568 1287.26 25.5568C1287.92 25.5568 1288.52 25.3902 1289.05 25.0568C1289.58 24.7197 1289.99 24.2273 1290.3 23.5795C1290.6 22.928 1290.76 22.1288 1290.76 21.1818ZM1294.55 27V18.2727H1296.19V19.6591H1296.28C1296.44 19.1894 1296.72 18.8201 1297.12 18.5511C1297.53 18.2784 1297.99 18.142 1298.5 18.142C1298.6 18.142 1298.73 18.1458 1298.87 18.1534C1299.02 18.161 1299.14 18.1705 1299.22 18.1818V19.8068C1299.15 19.7879 1299.03 19.767 1298.86 19.7443C1298.68 19.7178 1298.51 19.7045 1298.33 19.7045C1297.93 19.7045 1297.57 19.7898 1297.26 19.9602C1296.95 20.1269 1296.7 20.3598 1296.52 20.6591C1296.34 20.9545 1296.25 21.2917 1296.25 21.6705V27H1294.55ZM1303.64 27.1705C1302.94 27.1705 1302.31 26.9905 1301.76 26.6307C1301.21 26.267 1300.78 25.75 1300.46 25.0795C1300.15 24.4053 1300 23.5966 1300 22.6534C1300 21.7102 1300.15 20.9034 1300.47 20.233C1300.79 19.5625 1301.22 19.0492 1301.77 18.6932C1302.33 18.3371 1302.95 18.1591 1303.65 18.1591C1304.2 18.1591 1304.63 18.25 1304.96 18.4318C1305.29 18.6098 1305.55 18.8182 1305.73 19.0568C1305.92 19.2955 1306.06 19.5057 1306.17 19.6875H1306.27V15.3636H1307.97V27H1306.31V25.642H1306.17C1306.06 25.8277 1305.92 26.0398 1305.72 26.2784C1305.53 26.517 1305.27 26.7254 1304.94 26.9034C1304.61 27.0814 1304.17 27.1705 1303.64 27.1705ZM1304.02 25.7216C1304.51 25.7216 1304.92 25.5928 1305.26 25.3352C1305.6 25.0739 1305.86 24.7121 1306.03 24.25C1306.21 23.7879 1306.3 23.25 1306.3 22.6364C1306.3 22.0303 1306.21 21.5 1306.04 21.0455C1305.86 20.5909 1305.61 20.2367 1305.27 19.983C1304.93 19.7292 1304.51 19.6023 1304.02 19.6023C1303.51 19.6023 1303.08 19.7348 1302.74 20C1302.4 20.2652 1302.14 20.6269 1301.97 21.0852C1301.8 21.5436 1301.71 22.0606 1301.71 22.6364C1301.71 23.2197 1301.8 23.7443 1301.97 24.2102C1302.15 24.6761 1302.4 25.0455 1302.75 25.3182C1303.09 25.5871 1303.51 25.7216 1304.02 25.7216ZM1314.15 27.1761C1313.29 27.1761 1312.55 26.9924 1311.93 26.625C1311.31 26.2538 1310.84 25.733 1310.5 25.0625C1310.17 24.3883 1310 23.5985 1310 22.6932C1310 21.7992 1310.17 21.0114 1310.5 20.3295C1310.84 19.6477 1311.31 19.1155 1311.91 18.733C1312.52 18.3504 1313.22 18.1591 1314.03 18.1591C1314.53 18.1591 1315 18.2405 1315.47 18.4034C1315.93 18.5663 1316.34 18.822 1316.71 19.1705C1317.08 19.5189 1317.37 19.9716 1317.58 20.5284C1317.79 21.0814 1317.9 21.7538 1317.9 22.5455V23.1477H1310.96V21.875H1316.23C1316.23 21.428 1316.14 21.0322 1315.96 20.6875C1315.78 20.339 1315.52 20.0644 1315.19 19.8636C1314.87 19.6629 1314.48 19.5625 1314.05 19.5625C1313.57 19.5625 1313.15 19.6799 1312.8 19.9148C1312.44 20.1458 1312.17 20.4489 1311.98 20.8239C1311.79 21.1951 1311.69 21.5985 1311.69 22.0341V23.0284C1311.69 23.6117 1311.8 24.108 1312 24.517C1312.21 24.9261 1312.5 25.2386 1312.87 25.4545C1313.24 25.6667 1313.67 25.7727 1314.17 25.7727C1314.49 25.7727 1314.79 25.7273 1315.05 25.6364C1315.32 25.5417 1315.55 25.4015 1315.74 25.2159C1315.93 25.0303 1316.08 24.8011 1316.18 24.5284L1317.79 24.8182C1317.66 25.2917 1317.43 25.7064 1317.1 26.0625C1316.77 26.4148 1316.35 26.6894 1315.85 26.8864C1315.36 27.0795 1314.79 27.1761 1314.15 27.1761ZM1319.78 27V18.2727H1321.42V19.6591H1321.52C1321.67 19.1894 1321.96 18.8201 1322.36 18.5511C1322.76 18.2784 1323.22 18.142 1323.73 18.142C1323.84 18.142 1323.96 18.1458 1324.11 18.1534C1324.25 18.161 1324.37 18.1705 1324.45 18.1818V19.8068C1324.38 19.7879 1324.26 19.767 1324.09 19.7443C1323.92 19.7178 1323.74 19.7045 1323.57 19.7045C1323.17 19.7045 1322.81 19.7898 1322.49 19.9602C1322.18 20.1269 1321.94 20.3598 1321.75 20.6591C1321.57 20.9545 1321.48 21.2917 1321.48 21.6705V27H1319.78Z" fill="white"/>
</svg>
